<svg xmlns="http://www.w3.org/2000/svg" width="77.725" height="46.804" viewBox="0 0 77.725 46.804">
  <g id="Mastercard" transform="translate(0)">
    <path id="Tracé_15" data-name="Tracé 15" d="M863.873,40.634A22.961,22.961,0,0,0,879.459,46.7a23.4,23.4,0,0,0,0-46.8,22.961,22.961,0,0,0-15.586,6.066,23.417,23.417,0,0,0,0,34.669Z" transform="translate(-824.991 0.1)" fill="#e9b040"/>
    <path id="Tracé_16" data-name="Tracé 16" d="M2047.5,980.422a.719.719,0,0,1,.721-.722.729.729,0,0,1,.762.722.737.737,0,0,1-.762.762A.728.728,0,0,1,2047.5,980.422Zm.721.6a.616.616,0,0,0,.6-.6.582.582,0,0,0-.6-.561.573.573,0,0,0-.561.561A.614.614,0,0,0,2048.221,981.027Zm-.08-.244h-.16V980.1h.281a.243.243,0,0,1,.16.04c.08.04.08.08.08.16s-.041.16-.121.16l.161.321h-.2l-.08-.281h-.121v-.12h.16c.04,0,.04-.04.04-.08s0-.04-.04-.08h-.16Z" transform="translate(-1972.866 -943.985)" fill="#e9b040"/>
    <path id="Tracé_17" data-name="Tracé 17" d="M46.4,20.927c-.08-.842-.241-1.648-.4-2.49H31.775a24.376,24.376,0,0,1,.642-2.45H45.309q-.421-1.269-.962-2.49H33.419c.4-.849.846-1.68,1.327-2.49H42.98a20.775,20.775,0,0,0-1.768-2.45h-4.7a22.83,22.83,0,0,1,2.369-2.49A23.333,23.333,0,1,0,23.256,46.8a23.062,23.062,0,0,0,15.627-6.066,22.068,22.068,0,0,0,2.329-2.45h-4.7a27.815,27.815,0,0,1-1.768-2.49H42.98a18.967,18.967,0,0,0,1.367-2.49H33.419c-.361-.8-.722-1.608-1.006-2.45h12.9a25.277,25.277,0,0,0,.682-2.49,24.79,24.79,0,0,0,.4-2.49c.08-.813.12-1.633.12-2.45a24.315,24.315,0,0,0-.117-2.5Z" transform="translate(0 0.004)" fill="#cc2131"/>
    <path id="Tracé_18" data-name="Tracé 18" d="M2047.5,771.062a.728.728,0,0,1,.721-.762.737.737,0,0,1,.762.762.761.761,0,0,1-.762.762A.751.751,0,0,1,2047.5,771.062Zm.721.565a.563.563,0,1,0,0-1.123.561.561,0,0,0,0,1.123Zm-.08-.244h-.16v-.642h.441c.08.04.08.12.08.2a.216.216,0,0,1-.121.16l.161.281h-.2l-.08-.241h-.121v-.12h.08c.041,0,.08,0,.08-.04.04,0,.04-.04.04-.08a.039.039,0,0,0-.04-.04c0-.04-.04,0-.08,0h-.08Z" transform="translate(-1972.866 -742.218)" fill="#fff"/>
    <path id="Tracé_19" data-name="Tracé 19" d="M113.72,478.8l-.441,2.57a4.831,4.831,0,0,0-2.249-.642c-1.888,0-3.215,1.848-3.215,4.458,0,1.808.882,2.891,2.369,2.891a4.935,4.935,0,0,0,2.129-.6l-.441,2.69a8.394,8.394,0,0,1-2.209.361c-2.73,0-4.418-1.968-4.418-5.14,0-4.217,2.329-7.192,5.665-7.192a4.936,4.936,0,0,1,1.163.12l1.006.241c.321.124.4.164.642.244Zm-8.114,1.768h-.241c-.842,0-1.327.4-2.089,1.567l.241-1.487h-2.293l-1.567,9.641h2.53c.922-5.905,1.163-6.908,2.369-6.908h.16a10.067,10.067,0,0,1,.962-2.77l-.073-.044Zm-14.54,9.6a5.226,5.226,0,0,1-1.808.321,1.857,1.857,0,0,1-2.008-2.129,6.712,6.712,0,0,1,.08-.846l.16-.962.12-.762L88.7,479.21h2.49l-.281,1.447h1.287l-.321,2.369H90.58l-.682,4.017a1.5,1.5,0,0,0-.04.4c0,.481.241.682.842.682a1.668,1.668,0,0,0,.682-.08l-.317,2.129Zm-9.681-6.47a2.807,2.807,0,0,0,1.888,2.69c1.046.481,1.207.642,1.207,1.046,0,.6-.441.882-1.447.882a7.524,7.524,0,0,1-2.249-.361l-.361,2.209.12.04.441.08a2.617,2.617,0,0,0,.682.08,9.323,9.323,0,0,0,1.367.08c2.65,0,3.9-1.006,3.9-3.215a2.668,2.668,0,0,0-1.768-2.69c-1.086-.481-1.207-.6-1.207-1.046,0-.521.441-.762,1.247-.762a15.713,15.713,0,0,1,1.808.12l.361-2.209a14.584,14.584,0,0,0-2.209-.2c-2.814,0-3.816,1.491-3.776,3.255Zm51.575,6.59h-2.369l.12-.926a3.012,3.012,0,0,1-2.329,1.046c-1.848,0-3.051-1.567-3.051-3.977,0-3.215,1.888-5.945,4.1-5.945a2.876,2.876,0,0,1,2.409,1.327l.561-3.375h2.49l-1.928,11.85Zm-3.7-2.249c1.166,0,1.968-1.367,1.968-3.255,0-1.247-.441-1.888-1.327-1.888-1.126,0-1.968,1.327-1.968,3.215,0,1.283.445,1.928,1.327,1.928ZM98.775,490.09a8.268,8.268,0,0,1-2.61.4c-2.81,0-4.258-1.487-4.258-4.338,0-3.3,1.848-5.745,4.378-5.745a3.229,3.229,0,0,1,3.415,3.5,9.726,9.726,0,0,1-.321,2.409H94.4a.783.783,0,0,0-.04.281c0,1.126.762,1.688,2.209,1.688a5.53,5.53,0,0,0,2.61-.6l-.4,2.41Zm-1.4-5.741v-.481a1.113,1.113,0,0,0-1.207-1.247c-.8,0-1.367.6-1.608,1.728Zm-25.589,5.945h-2.49l1.447-9.12-3.255,9.12H65.757l-.2-9.04-1.527,9.04H61.7l1.968-11.85h3.616l.12,7.352,2.409-7.352h3.937l-1.968,11.85Zm6.226-4.3c-.241,0-.361-.04-.561-.04-1.407,0-2.129.521-2.129,1.487a.846.846,0,0,0,.882.962c1.046,0,1.768-.966,1.808-2.409Zm1.848,4.3H77.768l.04-1.006a3.133,3.133,0,0,1-2.65,1.166,2.333,2.333,0,0,1-2.289-2.61c0-2.369,1.608-3.736,4.418-3.736.281,0,.642.04,1.046.08a2.025,2.025,0,0,0,.08-.6c0-.642-.441-.882-1.608-.882a8.308,8.308,0,0,0-2.089.24l-.361.12-.241.04.361-2.169a10.128,10.128,0,0,1,3.015-.481c2.169,0,3.335.962,3.335,2.81a12.163,12.163,0,0,1-.2,1.928l-.561,3.416-.08.6-.04.481-.04.361-.047.241Zm37.92-4.3c-.281,0-.4-.04-.561-.04-1.447,0-2.169.521-2.169,1.487a.876.876,0,0,0,.926.962c1,0,1.764-.966,1.8-2.409Zm1.848,4.3h-2.089l.04-1.006a3.133,3.133,0,0,1-2.65,1.166,2.333,2.333,0,0,1-2.289-2.61c0-2.369,1.607-3.736,4.418-3.736a10.056,10.056,0,0,1,1.006.08,2.55,2.55,0,0,0,.12-.6c0-.642-.441-.882-1.608-.882a8.618,8.618,0,0,0-2.129.24l-.321.12-.241.04.361-2.169a10.128,10.128,0,0,1,3.015-.481c2.169,0,3.3.962,3.3,2.81a8.637,8.637,0,0,1-.2,1.928l-.521,3.416-.08.6-.08.481-.04.361-.007.241Zm6.747-9.721h-.241c-.842,0-1.327.4-2.089,1.567l.241-1.487h-2.289l-1.527,9.641h2.49c.926-5.905,1.166-6.908,2.369-6.908h.16a10.066,10.066,0,0,1,.962-2.77l-.077-.044Z" transform="translate(-59.451 -460.765)" fill="#fff"/>
  </g>
</svg>
