<svg xmlns="http://www.w3.org/2000/svg" width="77.88" height="25.266" viewBox="0 0 77.88 25.266">
  <g id="Visa" transform="translate(0)">
    <g id="Groupe_3" data-name="Groupe 3" transform="translate(0)">
      <path id="Tracé_11" data-name="Tracé 11" d="M33.761,24.844H27.406L31.378.437h6.355ZM22.061.437,16,17.223l-.718-3.616h0L13.148,2.635s-.259-2.2-3.013-2.2H.118L0,.848A23.766,23.766,0,0,1,6.648,3.639l5.523,21.206h6.622L28.9.437ZM72.042,24.844H77.88L72.79.437H67.682a2.925,2.925,0,0,0-2.935,1.817l-9.476,22.59H61.9l1.325-3.624H71.3l.744,3.624ZM65.05,16.209l3.339-9.135,1.877,9.135Zm-9.283-9.9.907-5.241A18.314,18.314,0,0,0,50.959,0C47.8,0,40.317,1.377,40.317,8.08c0,6.307,8.791,6.385,8.791,9.7s-7.884,2.717-10.486.629l-.944,5.482a17.833,17.833,0,0,0,7.174,1.377c4.338,0,10.879-2.247,10.879-8.358,0-6.348-8.869-6.937-8.869-9.7s6.189-2.4,8.906-.9Z" transform="translate(0 0)" fill="#fff"/>
    </g>
    <path id="Tracé_12" data-name="Tracé 12" d="M15.287,24.877,13.148,13.9s-.259-2.2-3.013-2.2H.118L0,12.115a24.649,24.649,0,0,1,9.431,4.734A19.05,19.05,0,0,1,15.287,24.877Z" transform="translate(0 -11.267)" fill="#fff"/>
  </g>
</svg>
