<svg xmlns="http://www.w3.org/2000/svg" width="104.953" height="27.974" viewBox="0 0 104.953 27.974">
  <g id="Paypal" transform="translate(0)">
    <path id="Tracé_1" data-name="Tracé 1" d="M894.3,7.648c-.449,2.928-2.684,2.928-4.845,2.928h-1.229l.866-5.473a.682.682,0,0,1,.674-.575h.562c1.474,0,2.862,0,3.583.839a2.747,2.747,0,0,1,.39,2.28M893.365,0H885.2a1.142,1.142,0,0,0-1.124.958l-3.3,20.928a.685.685,0,0,0,.568.78.535.535,0,0,0,.106.007h4.191a.8.8,0,0,0,.786-.668l.939-5.936a1.136,1.136,0,0,1,1.117-.958h2.585c5.381,0,8.481-2.6,9.294-7.76.364-2.254.013-4.026-1.038-5.268C898.151.72,896.095,0,893.365,0" transform="translate(-822.549 0)" fill="#fff"/>
    <path id="Tracé_2" data-name="Tracé 2" d="M13.5,7.648c-.443,2.928-2.684,2.928-4.845,2.928H7.426L8.292,5.1a.682.682,0,0,1,.674-.575h.562c1.474,0,2.862,0,3.583.839a2.747,2.747,0,0,1,.39,2.28M12.563,0H4.4A1.142,1.142,0,0,0,3.275.958l-3.3,20.928a.68.68,0,0,0,.568.78.569.569,0,0,0,.106.007h3.9a1.13,1.13,0,0,0,1.117-.958l.892-5.645a1.136,1.136,0,0,1,1.117-.958h2.585c5.381,0,8.481-2.6,9.294-7.76.364-2.254.013-4.026-1.038-5.268C17.348.72,15.292,0,12.563,0M31.514,15.164A4.356,4.356,0,0,1,27.1,18.9a3.29,3.29,0,0,1-2.624-1.058,3.319,3.319,0,0,1-.615-2.743,4.374,4.374,0,0,1,4.382-3.761,3.3,3.3,0,0,1,2.6,1.064,3.371,3.371,0,0,1,.661,2.763M36.96,7.549H33.054a.682.682,0,0,0-.674.575l-.172,1.091-.271-.4c-.846-1.229-2.73-1.639-4.614-1.639A8.991,8.991,0,0,0,18.6,15.038a7.382,7.382,0,0,0,1.454,6.009,6.123,6.123,0,0,0,4.925,1.99A7.488,7.488,0,0,0,30.39,20.8l-.172,1.084a.68.68,0,0,0,.568.78.569.569,0,0,0,.106.007h3.517a1.142,1.142,0,0,0,1.124-.958L37.648,8.335a.685.685,0,0,0-.568-.78.643.643,0,0,1-.119-.007" transform="translate(0.031 0)" fill="#fff"/>
    <path id="Tracé_3" data-name="Tracé 3" d="M1173.848,116.585a4.356,4.356,0,0,1-4.409,3.735,3.033,3.033,0,0,1-3.239-3.8,4.374,4.374,0,0,1,4.383-3.761,3.3,3.3,0,0,1,2.6,1.064,3.371,3.371,0,0,1,.661,2.763m5.447-7.615h-3.906a.682.682,0,0,0-.674.575l-.172,1.091-.271-.4c-.846-1.229-2.73-1.639-4.614-1.639a8.991,8.991,0,0,0-8.725,7.859,7.381,7.381,0,0,0,1.454,6.009,6.122,6.122,0,0,0,4.924,1.99,7.487,7.487,0,0,0,5.413-2.234l-.172,1.084a.68.68,0,0,0,.562.78.607.607,0,0,0,.112.007h3.517a1.142,1.142,0,0,0,1.124-.958l2.115-13.379a.685.685,0,0,0-.568-.78.608.608,0,0,1-.119-.007" transform="translate(-1084.081 -101.421)" fill="#fff"/>
    <path id="Tracé_4" data-name="Tracé 4" d="M617.117,114.207h-3.933a1.133,1.133,0,0,0-.939.5l-5.42,7.978-2.3-7.668a1.146,1.146,0,0,0-1.084-.813h-3.86a.68.68,0,0,0-.681.681.608.608,0,0,0,.04.218l4.33,12.7-4.072,5.744a.684.684,0,0,0,.555,1.077h3.926a1.141,1.141,0,0,0,.932-.489l13.068-18.865a.677.677,0,0,0-.562-1.064" transform="translate(-559.31 -106.651)" fill="#fff"/>
    <path id="Tracé_5" data-name="Tracé 5" d="M1462.631.575l-3.351,21.311a.685.685,0,0,0,.568.78.575.575,0,0,0,.106.007h3.371a1.142,1.142,0,0,0,1.124-.958L1467.754.787a.68.68,0,0,0-.569-.78.569.569,0,0,0-.106-.007h-3.768a.679.679,0,0,0-.681.575" transform="translate(-1362.81 0)" fill="#fff"/>
  </g>
</svg>
