<svg xmlns="http://www.w3.org/2000/svg" width="28.758" height="35.317" viewBox="0 0 28.758 35.317">
  <path id="Tracé_752" data-name="Tracé 752" d="M71.566,18.766a7.99,7.99,0,0,1,3.813-6.724,8.248,8.248,0,0,0-6.458-3.5c-2.75-.278-5.366,1.619-6.762,1.619s-3.546-1.578-5.827-1.537a8.641,8.641,0,0,0-7.305,4.428c-3.115,5.4-.8,13.411,2.238,17.794,1.483,2.146,3.252,4.555,5.574,4.469,2.236-.089,3.082-1.447,5.786-1.447s3.464,1.447,5.83,1.4c2.407-.045,3.931-2.187,5.4-4.339a19.474,19.474,0,0,0,2.446-5.023A7.8,7.8,0,0,1,71.566,18.766ZM67.119,5.64A7.784,7.784,0,0,0,68.957,0a7.918,7.918,0,0,0-5.2,2.675A7.4,7.4,0,0,0,61.88,8.139,6.55,6.55,0,0,0,67.119,5.64Z" transform="translate(-47.548)" fill="#fff"/>
</svg>
